name ./resultDataOpenSim/trcMotMarkerGrf/sub09/grf-12-06.mot
datacolumns 19
datarows 20
range 1.44000000 1.51600000
endheader

                time	     ground_force_vx	     ground_force_vy	     ground_force_vz	     ground_force_px	     ground_force_py	     ground_force_pz	   l_ground_force_vx	   l_ground_force_vy	   l_ground_force_vz	   l_ground_force_px	   l_ground_force_py	   l_ground_force_pz	     ground_torque_x	     ground_torque_y	     ground_torque_z	   l_ground_torque_x	   l_ground_torque_y	   l_ground_torque_z	
          1.44000000	        -45.29792268	        443.72368422	        -19.77504677	          1.02714911	          0.00000000	          0.06823175	          0.00000000	          0.00000000	          0.00000000	          0.00000000	          0.00000000	          0.00000000	          0.00000000	          1.58463938	          0.00000000	          0.00000000	          0.00000000	          0.00000000	
          1.44400000	        -43.22476868	        441.63827057	        -24.25064032	          1.02826980	          0.00000000	          0.06812720	          0.00000000	          0.00000000	          0.00000000	          0.00000000	          0.00000000	          0.00000000	          0.00000000	          1.29020004	          0.00000000	          0.00000000	          0.00000000	          0.00000000	
          1.44800000	        -38.98235905	        439.67231180	        -27.77825941	          1.02888746	          0.00000000	          0.06802990	          0.00000000	          0.00000000	          0.00000000	          0.00000000	          0.00000000	          0.00000000	          0.00000000	          1.01701838	          0.00000000	          0.00000000	          0.00000000	          0.00000000	
          1.45200000	        -33.55427564	        437.83762648	        -29.82002494	          1.02917933	          0.00000000	          0.06791370	          0.00000000	          0.00000000	          0.00000000	          0.00000000	          0.00000000	          0.00000000	          0.00000000	          0.83045550	          0.00000000	          0.00000000	          0.00000000	          0.00000000	
          1.45600000	        -28.15647659	        436.12248958	        -30.13217735	          1.02935202	          0.00000000	          0.06775463	          0.00000000	          0.00000000	          0.00000000	          0.00000000	          0.00000000	          0.00000000	          0.00000000	          0.78018752	          0.00000000	          0.00000000	          0.00000000	          0.00000000	
          1.46000000	        -23.93139237	        434.53265293	        -28.78357149	          1.02960982	          0.00000000	          0.06753268	          0.00000000	          0.00000000	          0.00000000	          0.00000000	          0.00000000	          0.00000000	          0.00000000	          0.89155183	          0.00000000	          0.00000000	          0.00000000	          0.00000000	
          1.46400000	        -21.66943665	        433.12941429	        -26.12817404	          1.03010245	          0.00000000	          0.06723442	          0.00000000	          0.00000000	          0.00000000	          0.00000000	          0.00000000	          0.00000000	          0.00000000	          1.16123757	          0.00000000	          0.00000000	          0.00000000	          0.00000000	
          1.46800000	        -21.61500694	        432.00846254	        -22.73050115	          1.03087499	          0.00000000	          0.06686161	          0.00000000	          0.00000000	          0.00000000	          0.00000000	          0.00000000	          0.00000000	          0.00000000	          1.55711716	          0.00000000	          0.00000000	          0.00000000	          0.00000000	
          1.47200000	        -23.41299890	        431.23564162	        -19.26127531	          1.03188024	          0.00000000	          0.06644563	          0.00000000	          0.00000000	          0.00000000	          0.00000000	          0.00000000	          0.00000000	          0.00000000	          2.02259280	          0.00000000	          0.00000000	          0.00000000	          0.00000000	
          1.47600000	        -26.21301172	        430.82246367	        -16.38809564	          1.03300379	          0.00000000	          0.06604355	          0.00000000	          0.00000000	          0.00000000	          0.00000000	          0.00000000	          0.00000000	          0.00000000	          2.48608562	          0.00000000	          0.00000000	          0.00000000	          0.00000000	
          1.48000000	        -28.90222471	        430.76658852	        -14.66622414	          1.03406014	          0.00000000	          0.06570625	          0.00000000	          0.00000000	          0.00000000	          0.00000000	          0.00000000	          0.00000000	          0.00000000	          2.87524008	          0.00000000	          0.00000000	          0.00000000	          0.00000000	
          1.48400000	        -30.40988128	        431.09692336	        -14.43698899	          1.03485962	          0.00000000	          0.06545912	          0.00000000	          0.00000000	          0.00000000	          0.00000000	          0.00000000	          0.00000000	          0.00000000	          3.13323791	          0.00000000	          0.00000000	          0.00000000	          0.00000000	
          1.48800000	        -30.00056641	        431.86910952	        -15.76239784	          1.03527964	          0.00000000	          0.06530286	          0.00000000	          0.00000000	          0.00000000	          0.00000000	          0.00000000	          0.00000000	          0.00000000	          3.23263784	          0.00000000	          0.00000000	          0.00000000	          0.00000000	
          1.49200000	        -27.46545765	        433.11984683	        -18.41653072	          1.03529959	          0.00000000	          0.06523025	          0.00000000	          0.00000000	          0.00000000	          0.00000000	          0.00000000	          0.00000000	          0.00000000	          3.18201061	          0.00000000	          0.00000000	          0.00000000	          0.00000000	
          1.49600000	        -23.15866021	        434.84835539	        -21.93465633	          1.03500270	          0.00000000	          0.06523333	          0.00000000	          0.00000000	          0.00000000	          0.00000000	          0.00000000	          0.00000000	          0.00000000	          3.02294648	          0.00000000	          0.00000000	          0.00000000	          0.00000000	
          1.50000000	        -17.88243768	        437.05382060	        -25.71766428	          1.03452219	          0.00000000	          0.06527686	          0.00000000	          0.00000000	          0.00000000	          0.00000000	          0.00000000	          0.00000000	          0.00000000	          2.81870020	          0.00000000	          0.00000000	          0.00000000	          0.00000000	
          1.50400000	        -12.65955154	        439.77014069	        -29.16269620	          1.03403633	          0.00000000	          0.06531548	          0.00000000	          0.00000000	          0.00000000	          0.00000000	          0.00000000	          0.00000000	          0.00000000	          2.63872306	          0.00000000	          0.00000000	          0.00000000	          0.00000000	
          1.50800000	         -8.45227299	        443.05619499	        -31.76536833	          1.03370960	          0.00000000	          0.06531009	          0.00000000	          0.00000000	          0.00000000	          0.00000000	          0.00000000	          0.00000000	          0.00000000	          2.54400694	          0.00000000	          0.00000000	          0.00000000	          0.00000000	
          1.51200000	         -5.90898620	        446.95507767	        -33.18187375	          1.03363543	          0.00000000	          0.06523337	          0.00000000	          0.00000000	          0.00000000	          0.00000000	          0.00000000	          0.00000000	          0.00000000	          2.57651722	          0.00000000	          0.00000000	          0.00000000	          0.00000000	
          1.51600000	         -5.21001744	        451.46733533	        -33.26810475	          1.03383056	          0.00000000	          0.06507374	          0.00000000	          0.00000000	          0.00000000	          0.00000000	          0.00000000	          0.00000000	          0.00000000	          2.75355795	          0.00000000	          0.00000000	          0.00000000	          0.00000000	
